<?xml version="1.0" encoding="iso-8859-1"?>
<!-- Generator: Adobe Illustrator 18.1.1, SVG Export Plug-In . SVG Version: 6.00 Build 0)  -->
<svg version="1.1" id="Capa_1" xmlns="http://www.w3.org/2000/svg" xmlns:xlink="http://www.w3.org/1999/xlink" x="0px" y="0px"
	 viewBox="0 0 611.999 611.999" style="enable-background:new 0 0 611.999 611.999;" xml:space="preserve">
<g>
	<g>
		<path d="M490.224,226.529L375.969,106.301c-4.762-5.01-13.234-8.647-20.148-8.647h-26.623v-7.63
			c15.192-8,25.581-23.942,25.581-42.273c0-26.33-21.421-47.751-47.75-47.751c-26.33,0-47.75,21.421-47.75,47.75
			c0,18.33,10.388,34.272,25.581,42.272v7.631h-28.681c-6.913,0-15.386,3.636-20.148,8.647l-114.255,120.23
			c-3.942,4.149-5.167,9.258-3.274,13.668c1.893,4.409,6.44,7.042,12.164,7.042h16.191l61.898,168.973
			c4.299,11.739,16.493,20.259,28.994,20.259h4.393l12.687,35.288c2.988,8.313,11.903,14.582,20.738,14.582h11.273V591.57
			c0,11.283,9.146,20.429,20.429,20.429c11.283,0,20.429-9.146,20.429-20.429V486.341h11.273c8.832,0,17.748-6.268,20.738-14.582
			l12.688-35.288h4.393c12.501,0,24.695-8.521,28.994-20.259l61.898-168.975h13.651c5.724,0,10.272-2.634,12.164-7.043
			C495.391,235.786,494.167,230.677,490.224,226.529z M184.154,247.24h105.605v154.212h-49.115L184.154,247.24z M373.896,401.452
			h-49.115V247.24h105.605L373.896,401.452z"/>
	</g>
</g>
<g>
</g>
<g>
</g>
<g>
</g>
<g>
</g>
<g>
</g>
<g>
</g>
<g>
</g>
<g>
</g>
<g>
</g>
<g>
</g>
<g>
</g>
<g>
</g>
<g>
</g>
<g>
</g>
<g>
</g>
</svg>
