<?xml version="1.0" encoding="iso-8859-1"?>
<!-- Generator: Adobe Illustrator 17.1.0, SVG Export Plug-In . SVG Version: 6.00 Build 0)  -->
<!DOCTYPE svg PUBLIC "-//W3C//DTD SVG 1.1//EN" "http://www.w3.org/Graphics/SVG/1.1/DTD/svg11.dtd">
<svg version="1.1" id="Capa_1" xmlns="http://www.w3.org/2000/svg" xmlns:xlink="http://www.w3.org/1999/xlink" x="0px" y="0px"
	 viewBox="0 0 199.333 199.333" style="enable-background:new 0 0 199.333 199.333;" xml:space="preserve">
<path d="M130.446,199.333H68.888c-1.025,0-1.946-0.626-2.324-1.579s-0.135-2.041,0.612-2.743l18.99-17.842v-60.212h-75.5
	c-1.381,0-2.5-1.119-2.5-2.5v-86.25c0-1.381,1.119-2.5,2.5-2.5h35.789l-8.457-15.528l-0.864,5.56
	c-0.189,1.217-1.238,2.115-2.471,2.115H24.497c-0.825,0-1.598-0.407-2.063-1.089c-0.466-0.681-0.565-1.548-0.267-2.317l5-12.854
	C27.541,0.633,28.466,0,29.497,0h7.115c0.235,0.002,0.47,0.024,0.695,0.084c0,0,0.005,0.002,0.008,0.002
	c0.002,0.002,0.003,0.002,0.007,0.002c0.003,0.002,0.006,0,0.008,0.003c0.002,0,0.003,0,0.005,0.001h0.001
	c0.003,0.001,0.006,0.002,0.009,0.003l0,0c0.005,0.001,0.011,0.003,0.015,0.004h0.001c0.004,0.001,0.008,0.002,0.01,0.003
	c0.005,0.002,0.011,0.005,0.016,0.005c0.004,0.002,0.006,0.002,0.01,0.003c0.002,0,0.005,0.001,0.009,0.003c0.001,0,0.001,0,0.001,0
	c0.004,0.001,0.007,0,0.008,0.003c0.573,0.18,1.084,0.565,1.409,1.122c0.015,0.025,0.028,0.051,0.042,0.076l13.285,24.394h95.036
	L160.47,1.314c0.014-0.025,0.027-0.051,0.042-0.076c0.312-0.532,0.793-0.909,1.337-1.099c0.001,0,0.002,0.001,0.005-0.002
	c0.073-0.025,0.147-0.047,0.224-0.065c0.002,0,0.003-0.001,0.005-0.001h0.001c0.208-0.051,0.422-0.074,0.639-0.07h7.114
	c1.031,0,1.956,0.633,2.33,1.594l5,12.854c0.299,0.77,0.199,1.637-0.267,2.317c-0.466,0.682-1.238,1.089-2.063,1.089h-10.166
	c-1.232,0-2.281-0.898-2.471-2.115l-0.864-5.56l-8.457,15.528h35.788c1.381,0,2.5,1.119,2.5,2.5v86.25c0,1.381-1.119,2.5-2.5,2.5
	h-75.5v60.212l18.991,17.842c0.747,0.702,0.99,1.79,0.612,2.743C132.392,198.707,131.471,199.333,130.446,199.333z M113.167,194.333
	h10.967l-10.967-10.304V194.333z M91.167,194.333h17v-77.376h-17V194.333z M75.2,194.333h10.967V184.03L75.2,194.333z
	 M110.667,111.957h75.5v-81.25h-37.45c-0.034,0.001-0.065,0.001-0.096,0H50.714c-0.03,0.001-0.062,0.001-0.096,0H13.167v81.25
	H110.667z M166.811,12.854h4.37L168.127,5h-2.537L166.811,12.854z M28.152,12.854h4.371L33.745,5h-2.538L28.152,12.854z
	 M180.334,103H19.001c-1.381,0-2.5-1.119-2.5-2.5v-65c0-1.381,1.119-2.5,2.5-2.5h161.333c1.381,0,2.5,1.119,2.5,2.5v65
	C182.834,101.881,181.715,103,180.334,103z M21.501,98h156.333V38H21.501V98z"/>
<g>
</g>
<g>
</g>
<g>
</g>
<g>
</g>
<g>
</g>
<g>
</g>
<g>
</g>
<g>
</g>
<g>
</g>
<g>
</g>
<g>
</g>
<g>
</g>
<g>
</g>
<g>
</g>
<g>
</g>
</svg>
