<?xml version="1.0" encoding="iso-8859-1"?>
<!-- Generator: Adobe Illustrator 16.0.0, SVG Export Plug-In . SVG Version: 6.00 Build 0)  -->
<!DOCTYPE svg PUBLIC "-//W3C//DTD SVG 1.1//EN" "http://www.w3.org/Graphics/SVG/1.1/DTD/svg11.dtd">
<svg version="1.1" id="Capa_1" xmlns="http://www.w3.org/2000/svg" xmlns:xlink="http://www.w3.org/1999/xlink" x="0px" y="0px"
	 width="439.875px" height="439.875px" viewBox="0 0 439.875 439.875" style="enable-background:new 0 0 439.875 439.875;"
	 xml:space="preserve">
<g>
	<g id="iconos_20_">
		<polygon points="114.75,258.188 67.482,258.188 57.375,258.188 57.375,275.171 57.375,336.122 57.375,430.312 114.75,430.312 
			114.75,392.062 325.125,392.062 325.125,430.312 382.5,430.312 382.5,315.266 382.5,258.188 335.232,258.188 325.125,258.188 
			325.125,275.171 325.125,334.688 322.715,334.688 237.055,334.688 188.84,334.688 114.75,334.688 114.75,315.266 		"/>
		<path d="M73.182,248.625h81.253h52.622h81.253h52.622h81.253h17.69v-29.72v-94.592h-24.93h-52.622H281.07h-52.622h-81.253H94.573
			H13.32H0v22.376v101.936h20.55H73.182z M403.557,143.438L352.312,229.5h-52.623l51.246-86.062H403.557z M269.682,143.438
			L218.436,229.5h-52.622l51.245-86.062H269.682z M135.807,143.438L84.561,229.5H31.939l51.245-86.062H135.807z"/>
		<path d="M32.943,91.351c4.351,2.658,9.41,4.274,14.87,4.274h19.125v19.125h33.325h4.925v-8.271V95.625h19.125
			c15.816,0,28.688-12.871,28.688-28.688V38.25c0-3.261-0.66-6.34-1.673-9.266c-3.873-11.255-14.458-19.421-27.014-19.421H81.645
			H47.812c-15.816,0-28.688,12.871-28.688,28.688v28.688C19.125,77.294,24.7,86.311,32.943,91.351z M38.25,38.25
			c0-5.269,4.293-9.562,9.562-9.562h22.443h54.057c5.269,0,9.562,4.293,9.562,9.562v20.053v8.635c0,5.269-4.293,9.562-9.562,9.562
			h-1.272h-17.853h-38.25H47.812c-1.894,0-3.557-0.698-5.04-1.645c-2.658-1.702-4.523-4.542-4.523-7.918V38.25z"/>
		<path d="M300.692,91.351c4.352,2.658,9.41,4.274,14.87,4.274h19.125v19.125h33.325h4.925v-8.271l0.201-10.854h18.924
			c15.816,0,28.688-12.871,28.688-28.688V38.25c0-3.261-0.66-6.34-1.674-9.266c-3.872-11.255-14.458-19.421-27.014-19.421h-42.668
			h-33.832c-15.816,0-28.688,12.871-28.688,28.688v28.688C286.875,77.294,292.45,86.311,300.692,91.351z M306,38.25
			c0-5.269,4.294-9.562,9.562-9.562h22.443h54.057c5.269,0,9.562,4.293,9.562,9.562v20.053v8.635c0,5.269-4.294,9.562-9.562,9.562
			h-1.271h-17.854h-38.25h-19.125c-1.894,0-3.558-0.698-5.039-1.645c-2.659-1.702-4.523-4.542-4.523-7.918V38.25z"/>
	</g>
</g>
<g>
</g>
<g>
</g>
<g>
</g>
<g>
</g>
<g>
</g>
<g>
</g>
<g>
</g>
<g>
</g>
<g>
</g>
<g>
</g>
<g>
</g>
<g>
</g>
<g>
</g>
<g>
</g>
<g>
</g>
</svg>
